<svg fill="#17A2B8" xmlns="http://www.w3.org/2000/svg" xmlns:xlink="http://www.w3.org/1999/xlink" version="1.1" x="0px" y="0px" viewBox="0 0 566.9 566.9" style="enable-background:new 0 0 566.9 566.9;" xml:space="preserve"><path d="M434.7,188.9c-30.4-19.5-62.7,0.8-73.5,14l-17-7.8L316,158.9c-1.1-4.5-2.3-7.1-2.3-7.1s-0.1,1.3-0.5,3.5l-2.3,8.7  c-4.2,12-14.5,29.2-39.1,34.1c-11.7,2.9-21.9,6.1-30.7,9.5l1.5-14.2c21.3,6.7,41.3-8.7,41.3-8.7s24.3-19.3,9-54  C277.6,96,246.6,95,246.6,95s-42-2.3-47,36.3s34,59.6,34,59.6v7l-5.6,15.1c-32.5,15.3-40.2,31.3-40.2,31.3c5.5-38.5-8.5-39-8.5-39  s-1-61.5-36.5-51.5c-37.4,10.5-8.5,51.5-8.5,51.5l-12.5,16.5c0,0-31,35.5,36,98.5s42,67.5,58,151.5c31.5-99.5-5.5-168-5.5-168  s24.7-42.7,67.7-74.4l45.3,10.2l-3,12l-25.2,7.3l5.2,5.7c0,0,18.3,2.3,25,6.7s14.3,5.3,15-2.3c0.7-7.7-4-19-12-18.2  c-8,0.8,1.7-11.5,1.7-11.5l23.3,0.1c0,0,6.2,29.4,44.8,28.1s50.2-29.5,50.2-29.5S463.6,207.4,434.7,188.9z M213,151.8  c-4.1-12.3-0.5-26.2,9-35c14.4-13.2,33.6-5.5,33.6-5.5s12.7,5.3,21.5,17.3c8,11,9.3,25.8,3.1,38C265.7,195.2,222.5,180.3,213,151.8z   M154.9,205.8l-17.3-2.7l-3.3-10c23.2-3.5,38.2-16.8,38.2-16.8l2.6,14.5l-7.1,8.6C159,197.7,154.9,205.8,154.9,205.8z M191.2,272.4  c0,0-2.8,11.5-12.5,11.2s-9.5-11.2-9.5-11.2c3.6,2.1,9.6-9,9.6-9s0.8-6.8,6.9-10.2c8-1.6,8.2,5.9,8.2,5.9s-2.4,0.9-1.1,5.6  S191.2,272.4,191.2,272.4z M193.4,271.1c1.1-1.1,0.6-5,0.6-5s3.9-0.9,4.4,2.5S194.4,272,193.4,271.1z M317.5,170.8l2.3,2.3  l14.8,22.5l-23.8,2.2C316.1,188,317.6,178.5,317.5,170.8z M326.7,232.1l-39.9-8.8c6.5-4.5,11.7-9.2,15.8-14l23.6-2.2  c0,0,0,5.5,5.2,9.5L326.7,232.1z M352.4,234.5l-20.5-1l4.7-14.5c0,0,4.3,1.2,8-1.7l7.8,8.1C352.4,225.5,351.6,229.6,352.4,234.5z   M433.7,236.3c-5.9,8-17.1,19.2-33.9,19.7c-34.9,0.7-36.2-26.6-34.3-35.5c2.5-11.7,24.2-35.2,54.8-24.3c9.6,3.4,14.5,9.2,16.8,15  C440.5,219.5,439,229.1,433.7,236.3z"></path></svg>