<svg height="384pt" viewBox="-56 0 384 384" width="384pt" xmlns="http://www.w3.org/2000/svg"><path d="m272 136c0-74.992188-61.007812-136-136-136s-136 61.007812-136 136c0 69.566406 52.535156 127.015625 120 134.976562v33.023438h-32c-8.832031 0-16 7.167969-16 16s7.167969 16 16 16h32v32c0 8.832031 7.167969 16 16 16s16-7.167969 16-16v-32h32c8.832031 0 16-7.167969 16-16s-7.167969-16-16-16h-32v-33.023438c67.464844-7.960937 120-65.410156 120-134.976562zm-240 0c0-57.34375 46.65625-104 104-104s104 46.65625 104 104-46.65625 104-104 104-104-46.65625-104-104zm0 0"/></svg>