<svg height="384pt" viewBox="0 0 384 384" width="384pt" xmlns="http://www.w3.org/2000/svg"><path d="m383.792969 13.9375c-.175781-1.378906-.480469-2.707031-.984375-3.953125-.015625-.03125-.015625-.074219-.023438-.113281 0-.007813-.007812-.015625-.015625-.023438-.554687-1.3125-1.3125-2.503906-2.167969-3.609375-.210937-.261719-.417968-.519531-.640624-.765625-.914063-1.03125-1.90625-1.984375-3.058594-2.761718-.03125-.023438-.070313-.03125-.101563-.054688-1.113281-.734375-2.34375-1.289062-3.632812-1.726562-.320313-.113282-.632813-.210938-.960938-.296876-1.351562-.367187-2.742187-.632812-4.207031-.632812h-112c-8.832031 0-16 7.167969-16 16s7.167969 16 16 16h73.367188l-95.496094 95.496094c-25.464844-20.367188-56.816406-31.496094-89.871094-31.496094-79.398438 0-144 64.601562-144 144s64.601562 144 144 144 144-64.601562 144-144c0-33.039062-11.121094-64.382812-31.503906-89.871094l95.503906-95.503906v73.375c0 8.832031 7.167969 16 16 16s16-7.167969 16-16v-112c0-.335938-.078125-.65625-.097656-.984375-.023438-.367187-.0625-.71875-.109375-1.078125zm-239.792969 338.0625c-61.761719 0-112-50.238281-112-112s50.238281-112 112-112c29.902344 0 58.054688 11.640625 79.222656 32.734375 21.136719 21.210937 32.777344 49.363281 32.777344 79.265625 0 61.761719-50.238281 112-112 112zm0 0"/></svg>