<?xml version="1.0" encoding="iso-8859-1"?>
<!-- Generator: Adobe Illustrator 19.0.0, SVG Export Plug-In . SVG Version: 6.00 Build 0)  -->
<svg version="1.1" id="Capa_1" xmlns="http://www.w3.org/2000/svg" xmlns:xlink="http://www.w3.org/1999/xlink" x="0px" y="0px"
	 viewBox="0 0 480 480" style="enable-background:new 0 0 480 480;" xml:space="preserve">
<g>
	<g>
		<path d="M316,304H156c-4.418,0-8,3.582-8,8s3.582,8,8,8h72v152c0,4.418,3.582,8,8,8s8-3.582,8-8V320h72c4.418,0,8-3.582,8-8
			S320.418,304,316,304z"/>
	</g>
</g>
<g>
	<g>
		<path d="M404,232c-22.091,0-40,17.909-40,40v64c0,4.418-3.582,8-8,8h-40c-13.255,0-24,10.745-24,24v88c0,13.255,10.745,24,24,24
			s24-10.745,24-24v-56c0-4.418,3.582-8,8-8h72c13.255,0,24-10.745,24-24v-96C444,249.909,426.091,232,404,232z M428,368
			c0,4.418-3.582,8-8,8h-72c-13.255,0-24,10.745-24,24v56c0,4.418-3.582,8-8,8s-8-3.582-8-8v-88c0-4.418,3.582-8,8-8h40
			c13.255,0,24-10.745,24-24v-64c0-13.255,10.745-24,24-24s24,10.745,24,24V368z"/>
	</g>
</g>
<g>
	<g>
		<path d="M404,144c-22.08,0.026-39.974,17.92-40,40c0,22.091,17.909,40,40,40c22.091,0,40-17.909,40-40S426.091,144,404,144z
			 M404,208c-13.255,0-24-10.745-24-24s10.745-24,24-24s24,10.745,24,24S417.255,208,404,208z"/>
	</g>
</g>
<g>
	<g>
		<path d="M164,344h-40c-4.418,0-8-3.582-8-8v-64c0-22.091-17.909-40-40-40s-40,17.909-40,40v96c0,13.255,10.745,24,24,24h72
			c4.418,0,8,3.582,8,8v56c0,13.255,10.745,24,24,24s24-10.745,24-24v-88C188,354.745,177.255,344,164,344z M172,456
			c0,4.418-3.582,8-8,8s-8-3.582-8-8v-56c0-13.255-10.745-24-24-24H60c-4.418,0-8-3.582-8-8v-96c0-13.255,10.745-24,24-24
			s24,10.745,24,24v64c0,13.255,10.745,24,24,24h40c4.418,0,8,3.582,8,8V456z"/>
	</g>
</g>
<g>
	<g>
		<path d="M76,144c-22.091,0-40,17.909-40,40c0.026,22.08,17.92,39.974,40,40c22.091,0,40-17.909,40-40S98.091,144,76,144z M76,208
			c-13.255,0-24-10.745-24-24s10.745-24,24-24s24,10.745,24,24S89.255,208,76,208z"/>
	</g>
</g>
<g>
	<g>
		<path d="M354.233,203.003c-1.872-2.34-4.896-3.438-7.833-2.844l-22.76,4.544c-1.883,0.378-3.836-0.11-5.32-1.328
			c-1.493-1.217-2.347-3.05-2.32-4.976c-0.022-12.362-10.038-22.378-22.4-22.4H178.4c-12.362,0.022-22.378,10.038-22.4,22.4v67.2
			c0.022,12.362,10.038,22.378,22.4,22.4h115.2c12.362-0.022,22.378-10.038,22.4-22.4v-18.672c-0.012-1.949,0.873-3.796,2.4-5.008
			l34.584-27.672C356.434,211.488,356.993,206.454,354.233,203.003z M308.424,229.424c-5.337,4.24-8.44,10.688-8.424,17.504V265.6
			c0,3.535-2.865,6.4-6.4,6.4H178.4c-3.535,0-6.4-2.865-6.4-6.4v-67.2c0-3.535,2.865-6.4,6.4-6.4h115.2c3.535,0,6.4,2.865,6.4,6.4
			c-0.013,11.222,8.28,20.721,19.4,22.224L308.424,229.424z"/>
	</g>
</g>
<g>
	<g>
		<path d="M300,0H164c-13.255,0-24,10.745-24,24v64c0.002,8.336,4.33,16.075,11.432,20.44l-26.088,39.12
			c-2.165,3.244-1.675,7.577,1.16,10.256c2.832,2.676,7.18,2.922,10.296,0.584l59.736-44.8c1.387-1.035,3.07-1.596,4.8-1.6H300
			c13.255,0,24-10.745,24-24V24C324,10.745,313.255,0,300,0z M308,88c0,4.418-3.582,8-8,8h-98.664
			c-5.192,0.008-10.242,1.691-14.4,4.8l-22.4,16.8l6.096-9.136c2.465-3.666,1.492-8.637-2.175-11.103
			c-1.318-0.886-2.869-1.36-4.457-1.361c-4.418,0-8-3.582-8-8V24c0-4.418,3.582-8,8-8h136c4.418,0,8,3.582,8,8V88z"/>
	</g>
</g>
<g>
	<g>
		<path d="M284,48H180c-4.418,0-8,3.582-8,8s3.582,8,8,8h104c4.418,0,8-3.582,8-8S288.418,48,284,48z"/>
	</g>
</g>
<g>
	<g>
		<path d="M276,224h-80c-4.418,0-8,3.582-8,8s3.582,8,8,8h80c4.418,0,8-3.582,8-8S280.418,224,276,224z"/>
	</g>
</g>
<g>
</g>
<g>
</g>
<g>
</g>
<g>
</g>
<g>
</g>
<g>
</g>
<g>
</g>
<g>
</g>
<g>
</g>
<g>
</g>
<g>
</g>
<g>
</g>
<g>
</g>
<g>
</g>
<g>
</g>
</svg>
