<?xml version="1.0" encoding="iso-8859-1"?>
<!-- Generator: Adobe Illustrator 19.0.0, SVG Export Plug-In . SVG Version: 6.00 Build 0)  -->
<svg version="1.1" id="Layer_1" xmlns="http://www.w3.org/2000/svg" xmlns:xlink="http://www.w3.org/1999/xlink" x="0px" y="0px"
	 viewBox="0 0 511.997 511.997" style="enable-background:new 0 0 511.997 511.997;" xml:space="preserve">
<g>
	<g>
		<path d="M279.71,10.719c-6.12-6.532-14.762-10.277-23.711-10.277c-8.949,0-17.592,3.746-23.711,10.277
			c-6.12,6.531-9.296,15.399-8.713,24.331l1.634,25.046c0,0.001,0,0.001,0,0.001c0.647,9.903,5.875,18.961,13.986,24.231
			c5.104,3.317,10.955,4.974,16.805,4.974c5.85,0,11.702-1.658,16.804-4.973c8.11-5.27,13.339-14.328,13.985-24.232l1.634-25.047
			C289.006,26.119,285.83,17.251,279.71,10.719z M268.07,33.723l-1.634,25.045c-0.229,3.515-2.002,6.675-4.743,8.456
			c-3.46,2.247-7.927,2.245-11.385,0c-2.741-1.781-4.513-4.943-4.744-8.456l-1.634-25.045c-0.219-3.373,0.932-6.59,3.244-9.057
			c2.311-2.466,5.445-3.825,8.825-3.825c3.38,0,6.513,1.359,8.825,3.825C267.138,27.133,268.289,30.35,268.07,33.723z"/>
	</g>
</g>
<g>
	<g>
		<path d="M336.668,149.202l-2.833-15.643c-3.726-20.564-20.018-36.976-40.541-40.841c-3.099-0.583-6.266-0.879-9.417-0.879h-8.534
			c-2.705,0-5.299,1.075-7.212,2.987c-3.24,3.24-7.548,5.025-12.132,5.025c-4.584,0-8.892-1.785-12.132-5.025
			c-1.913-1.912-4.507-2.987-7.212-2.987h-8.534c-3.15,0-6.318,0.296-9.417,0.879c-20.523,3.863-36.815,20.276-40.541,40.841
			l-2.833,15.643c-0.539,2.974,0.27,6.035,2.207,8.355c1.939,2.32,4.806,3.662,7.829,3.662h141.267c3.023,0,5.89-1.341,7.827-3.662
			C336.397,155.237,337.206,152.177,336.668,149.202z M197.58,140.82l0.656-3.626c2.229-12.302,11.973-22.12,24.245-24.431
			c1.856-0.35,3.754-0.527,5.642-0.527h4.682c6.589,5.194,14.675,8.013,23.195,8.013c8.519,0,16.606-2.818,23.195-8.013h4.682
			c1.887,0,3.786,0.177,5.642,0.527c12.273,2.311,22.015,12.129,24.245,24.431l0.657,3.626H197.58z"/>
	</g>
</g>
<g>
	<g>
		<path d="M279.71,361.054c-6.12-6.532-14.762-10.277-23.711-10.277c-8.949,0-17.592,3.746-23.711,10.277
			c-6.12,6.532-9.296,15.4-8.713,24.331l1.634,25.047c0.647,9.904,5.876,18.962,13.985,24.231
			c5.106,3.317,10.955,4.974,16.806,4.974c5.849,0,11.702-1.658,16.804-4.974c8.109-5.269,13.339-14.328,13.985-24.232l1.634-25.047
			C289.006,376.454,285.83,367.586,279.71,361.054z M268.07,384.056l-1.634,25.046c-0.229,3.514-2.002,6.674-4.744,8.455
			c-3.459,2.247-7.926,2.247-11.384,0c-2.741-1.781-4.513-4.942-4.744-8.455l-1.634-25.045c-0.219-3.374,0.932-6.591,3.244-9.057
			c2.31-2.466,5.445-3.825,8.825-3.825c3.38,0,6.514,1.359,8.825,3.825C267.138,377.466,268.289,380.683,268.07,384.056z"/>
	</g>
</g>
<g>
	<g>
		<path d="M336.667,499.537l-2.833-15.643c-3.726-20.564-20.018-36.976-40.541-40.841c-3.096-0.583-6.264-0.879-9.417-0.879h-8.534
			c-2.705,0-5.299,1.075-7.212,2.987c-6.69,6.691-17.573,6.69-24.263,0c-1.913-1.912-4.507-2.987-7.212-2.987h-8.534
			c-3.148,0-6.316,0.296-9.417,0.879c-20.523,3.865-36.815,20.277-40.541,40.842l-2.833,15.643c-0.539,2.974,0.27,6.035,2.207,8.355
			c1.939,2.32,4.806,3.661,7.829,3.661h141.267c3.023,0,5.89-1.341,7.826-3.663C336.396,505.572,337.205,502.512,336.667,499.537z
			 M197.58,491.156l0.655-3.625c2.23-12.302,11.973-22.12,24.242-24.431c1.858-0.35,3.757-0.527,5.644-0.527h4.688
			c13.56,10.66,32.823,10.66,46.381,0h4.688c1.888,0,3.787,0.177,5.642,0.526c12.273,2.311,22.015,12.129,24.245,24.431l0.657,3.626
			H197.58z"/>
	</g>
</g>
<g>
	<g>
		<path d="M104.544,185.889c-6.12-6.532-14.762-10.278-23.712-10.278c-8.95,0-17.594,3.746-23.713,10.278
			c-6.119,6.531-9.294,15.399-8.711,24.329l1.634,25.046c0.646,9.903,5.874,18.962,13.985,24.232
			c5.105,3.316,10.956,4.974,16.806,4.974s11.702-1.658,16.804-4.973c8.111-5.27,13.339-14.329,13.984-24.231l1.634-25.047
			C113.837,201.289,110.662,192.419,104.544,185.889z M92.902,208.89l-1.634,25.047c-0.228,3.514-2.001,6.673-4.743,8.454
			c-3.459,2.247-7.926,2.247-11.384,0c-2.742-1.782-4.514-4.942-4.744-8.454l-1.634-25.047c-0.22-3.373,0.932-6.59,3.243-9.056
			c2.311-2.467,5.446-3.826,8.826-3.826s6.514,1.36,8.825,3.826S93.122,205.517,92.902,208.89z"/>
	</g>
</g>
<g>
	<g>
		<path d="M161.499,324.369l-2.833-15.643c-3.726-20.564-20.018-36.976-40.541-40.841c-3.097-0.583-6.265-0.879-9.418-0.879h-8.534
			c-2.704,0-5.297,1.075-7.211,2.987c-6.69,6.69-17.573,6.691-24.263,0c-1.913-1.912-4.507-2.987-7.212-2.987h-8.535
			c-3.148,0-6.317,0.296-9.416,0.879c-20.523,3.865-36.815,20.277-40.541,40.841l-2.833,15.643c-0.539,2.974,0.27,6.035,2.207,8.355
			c1.939,2.32,4.806,3.661,7.829,3.661h141.267c3.023,0,5.89-1.341,7.826-3.661C161.229,330.404,162.038,327.345,161.499,324.369z
			 M22.413,315.988l0.656-3.626c2.23-12.301,11.973-22.12,24.245-24.431c1.856-0.35,3.754-0.527,5.641-0.527h4.684
			c6.589,5.194,14.676,8.012,23.195,8.012s16.606-2.818,23.195-8.012h4.682c1.887,0,3.785,0.177,5.641,0.527
			c12.273,2.311,22.015,12.13,24.245,24.431l0.657,3.626H22.413z"/>
	</g>
</g>
<g>
	<g>
		<path d="M454.877,185.887c-6.12-6.532-14.762-10.277-23.711-10.277c-8.95,0-17.593,3.746-23.712,10.278
			c-6.119,6.531-9.294,15.4-8.711,24.33l1.634,25.046c0.646,9.903,5.873,18.962,13.984,24.232
			c5.106,3.317,10.955,4.974,16.806,4.974c5.849,0,11.702-1.658,16.804-4.974c8.111-5.27,13.34-14.329,13.985-24.232l1.634-25.047
			C464.173,201.286,460.997,192.418,454.877,185.887z M443.237,208.889l-1.634,25.047c-0.228,3.513-2.002,6.673-4.744,8.454
			c-3.456,2.246-7.924,2.247-11.384,0c-2.741-1.781-4.513-4.941-4.743-8.454l-1.634-25.047c-0.22-3.373,0.933-6.59,3.243-9.056
			c2.31-2.466,5.445-3.825,8.825-3.825c3.381,0,6.515,1.359,8.825,3.825C442.305,202.299,443.456,205.516,443.237,208.889z"/>
	</g>
</g>
<g>
	<g>
		<path d="M511.834,324.369l-2.833-15.643c-3.726-20.564-20.018-36.976-40.541-40.841c-3.099-0.583-6.266-0.879-9.417-0.879h-8.535
			c-2.704,0-5.297,1.075-7.211,2.987c-6.69,6.69-17.573,6.691-24.263,0c-1.913-1.912-4.507-2.987-7.212-2.987h-8.534
			c-3.151,0-6.319,0.296-9.416,0.879c-20.524,3.865-36.816,20.277-40.542,40.841l-2.833,15.643c-0.539,2.974,0.27,6.035,2.207,8.355
			c1.939,2.32,4.806,3.661,7.829,3.661h141.267c3.023,0,5.89-1.341,7.826-3.661C511.564,330.404,512.372,327.345,511.834,324.369z
			 M372.747,315.988l0.657-3.626c2.229-12.301,11.972-22.12,24.246-24.431c1.855-0.35,3.752-0.527,5.64-0.527h4.682
			c6.589,5.194,14.676,8.012,23.195,8.012c8.519,0,16.606-2.818,23.195-8.012h4.683c1.886,0,3.785,0.177,5.641,0.527
			c12.273,2.311,22.015,12.13,24.245,24.431l0.657,3.626H372.747z"/>
	</g>
</g>
<g>
	<g>
		<path d="M203.024,66.228c-1.805-5.335-7.593-8.197-12.931-6.393c-40.397,13.667-76.38,40.378-101.32,75.21
			c-3.278,4.58-2.224,10.952,2.356,14.231c1.799,1.288,3.874,1.907,5.929,1.907c3.178,0,6.311-1.482,8.301-4.263
			c22.474-31.388,54.888-55.453,91.272-67.763C201.968,77.352,204.83,71.563,203.024,66.228z"/>
	</g>
</g>
<g>
	<g>
		<path d="M423.535,135.045c-17.557-24.522-40.725-45.255-67.003-59.957c-4.913-2.749-11.13-0.995-13.88,3.921
			c-2.751,4.916-0.994,11.13,3.921,13.881c23.676,13.248,44.554,31.932,60.377,54.03c1.991,2.782,5.123,4.263,8.302,4.263
			c2.054,0,4.129-0.619,5.927-1.908C425.761,145.996,426.814,139.624,423.535,135.045z"/>
	</g>
</g>
<g>
	<g>
		<path d="M327.477,61.695c-1.734-0.639-3.504-1.266-5.262-1.86c-5.337-1.808-11.124,1.057-12.931,6.392
			c-1.804,5.335,1.058,11.124,6.393,12.93c1.582,0.535,3.176,1.099,4.737,1.676c1.166,0.43,2.358,0.634,3.531,0.634
			c4.149,0,8.049-2.551,9.568-6.671C335.464,69.511,332.762,63.646,327.477,61.695z"/>
	</g>
</g>
<g>
	<g>
		<path d="M196.632,422.205c-36.384-12.308-68.798-36.374-91.272-67.763c-3.28-4.579-9.651-5.634-14.23-2.355
			c-4.581,3.28-5.635,9.651-2.356,14.231c24.94,34.833,60.924,61.543,101.32,75.21c1.084,0.366,2.186,0.541,3.27,0.541
			c4.253,0,8.222-2.682,9.661-6.934C204.83,429.8,201.968,424.011,196.632,422.205z"/>
	</g>
</g>
<g>
	<g>
		<path d="M421.18,352.089c-4.58-3.279-10.952-2.223-14.23,2.355c-22.474,31.389-54.888,55.454-91.272,67.762
			c-5.336,1.805-8.198,7.594-6.393,12.93c1.438,4.252,5.408,6.933,9.661,6.933c1.083,0,2.186-0.174,3.269-0.54
			c40.982-13.865,76.018-39.872,101.321-75.21C426.814,361.739,425.761,355.368,421.18,352.089z"/>
	</g>
</g>
<g>
</g>
<g>
</g>
<g>
</g>
<g>
</g>
<g>
</g>
<g>
</g>
<g>
</g>
<g>
</g>
<g>
</g>
<g>
</g>
<g>
</g>
<g>
</g>
<g>
</g>
<g>
</g>
<g>
</g>
</svg>
